{"title":"Chungking Express 1994 720p BRRip x264 MP4 AAC-CC","uid":8601488,"size":2763416612,"categoryP":"video","categoryS":"hd___movies","magnet":"?xt=urn:btih:a1c938fc861665b7c7c22acdc0d95de440f47ee8&amp;dn=Chungking+Express+1994+720p+BRRip+x264+MP4+AAC-CC&amp;tr=udp%3A%2F%2Ftracker.openbittorrent.com%3A80&amp;tr=udp%3A%2F%2Fopen.demonii.com%3A1337&amp;tr=udp%3A%2F%2Ftracker.coppersurfer.tk%3A6969&amp;tr=udp%3A%2F%2Fexodus.desync.com%3A6969","seeders":10,"leechers":1,"uploader":"Caveman44","files":-1,"time":1371898945,"description":"IMDb title: Chung Hing sam lam\n\nSource: Chungking.Express.1994.720p.BluRay.DTS.x264-ESiR Thanks!\n\nSubs: Brazilian, Dutch, English, Farsi-Persian, German, Polish, Portuguese, Spanish, Turkish, Vietnamese.\n\nSample and Screens included.\n\nGeneral\nComplete name                            : Chungking Express 1994 720p BRRip x264 MP4 AAC-CC.mp4\nFormat                                   : MPEG-4\nFormat profile                           : Base Media\nCodec ID                                 : isom\nFile size                                : 2.54 GiB\nDuration                                 : 1h 42mn\nOverall bit rate mode                    : Variable\nOverall bit rate                         : 3 536 Kbps\nEncoded date                             : UTC 2013-06-13 13:56:25\nTagged date                              : UTC 2013-06-13 13:56:25\nWriting application                      : Yamb 2.1.0.0 \n\nVideo\nID                                       : 1\nFormat                                   : AVC\nFormat/Info                              : Advanced Video Codec\nFormat profile                           : &lt;a class=&quot;__cf_email__&quot; href=&quot;/cdn-cgi/l/email-protection&quot; data-cfemail=&quot;551d3c323d1519617b64&quot;&gt;[email&amp;#160;protected]&lt;/a&gt;&lt;script cf-hash='f9e31' type=&quot;text/javascript&quot;&gt;\n/* &lt;![CDATA[ */!function(){try{var t=&quot;currentScript&quot;in document?document.currentScript:function(){for(var t=document.getElementsByTagName(&quot;script&quot;),e=t.length;e--;)if(t[e].getAttribute(&quot;cf-hash&quot;))return t[e]}();if(t&amp;&amp;t.previousSibling){var e,r,n,i,c=t.previousSibling,a=c.getAttribute(&quot;data-cfemail&quot;);if(a){for(e=&quot;&quot;,r=parseInt(a.substr(0,2),16),n=2;a.length-n;n+=2)i=parseInt(a.substr(n,2),16)^r,e+=String.fromCharCode(i);e=document.createTextNode(e),c.parentNode.replaceChild(e,c)}}}catch(u){}}();/* ]]&gt; */&lt;/script&gt;\nFormat settings, CABAC                   : Yes\nFormat settings, ReFrames                : 5 frames\nCodec ID                                 : avc1\nCodec ID/Info                            : Advanced Video Coding\nDuration                                 : 1h 42mn\nBit rate                                 : 3 187 Kbps\nMaximum bit rate                         : 13.1 Mbps\nWidth                                    : 1 200 pixels\nHeight                                   : 720 pixels\nDisplay aspect ratio                     : 1.667\nFrame rate mode                          : Variable\nFrame rate                               : 23.976 fps\nMinimum frame rate                       : 23.810 fps\nMaximum frame rate                       : 24.390 fps\nColor space                              : YUV\nChroma subsampling                       : 4:2:0\nBit depth                                : 8 bits\nScan type                                : Progressive\nBits/(Pixel*Frame)                       : 0.154\nStream size                              : 2.29 GiB (90%)\nWriting library                          : x264 core 112\nEncoding settings                        : cabac=1 / ref=5 / deblock=1:0:0 / analyse=0x3:0x113 / me=hex / subme=7 / psy=1 / psy_rd=1.00:0.00 / mixed_ref=1 / me_range=16 / chroma_me=1 / trellis=1 / 8x8dct=1 / cqm=0 / deadzone=21,11 / fast_pskip=1 / chroma_qp_offset=-2 / threads=3 / sliced_threads=0 / nr=0 / decimate=1 / interlaced=0 / constrained_intra=0 / bframes=5 / b_pyramid=2 / b_adapt=2 / b_bias=0 / direct=1 / weightb=1 / open_gop=0 / weightp=2 / keyint=240 / keyint_min=23 / scenecut=40 / intra_refresh=0 / rc_lookahead=50 / rc=abr / mbtree=1 / bitrate=3187 / ratetol=1.0 / qcomp=0.60 / qpmin=3 / qpmax=51 / qpstep=4 / ip_ratio=1.40 / aq=1:1.00\nEncoded date                             : UTC 2013-05-21 19:52:28\nTagged date                              : UTC 2013-06-13 13:59:55\nColor primaries                          : BT.709\nTransfer characteristics                 : BT.709\nMatrix coefficients                      : BT.709\n\nAudio\nID                                       : 2\nFormat                                   : AAC\nFormat/Info                              : Advanced Audio Codec\nFormat profile                           : LC\nCodec ID                                 : 40\nDuration                                 : 1h 42mn\nBit rate mode                            : Variable\nBit rate                                 : 353 Kbps\nMaximum bit rate                         : 778 Kbps\nChannel(s)                               : 6 channels\nChannel positions                        : Front: L C R, Side: L R, LFE\nSampling rate                            : 48.0 KHz\nCompression mode                         : Lossy\nDelay relative to video                  : 83ms\nStream size                              : 258 MiB (10%)\nLanguage                                 : Chinese\nEncoded date                             : UTC 2013-06-13 13:59:14\nTagged date                              : UTC 2013-06-13 13:59:55\n\nEnjoy...\n\nRequested by DreamExtractor \n\nComing soon: The Great Escape, The Tin Drum, Das Leben der Anderen and more..\n","torrent":{"xt":"urn:btih:a1c938fc861665b7c7c22acdc0d95de440f47ee8","amp;dn":"Chungking+Express+1994+720p+BRRip+x264+MP4+AAC-CC","amp;tr":["udp%3A%2F%2Ftracker.openbittorrent.com%3A80","udp%3A%2F%2Fopen.demonii.com%3A1337","udp%3A%2F%2Ftracker.coppersurfer.tk%3A6969","udp%3A%2F%2Fexodus.desync.com%3A6969"],"infoHash":"a1c938fc861665b7c7c22acdc0d95de440f47ee8","infoHashBuffer":{"type":"Buffer","data":[161,201,56,252,134,22,101,183,199,194,42,205,192,217,93,228,64,244,126,232]},"announce":[],"urlList":[]}}